<?xml version="1.0" standalone="no"?><svg xmlns="http://www.w3.org/2000/svg" viewBox="0 0 1440 320"><path fill="#ffb400" fill-opacity="1" d="M0,32L14.1,42.7C28.2,53,56,75,85,117.3C112.9,160,141,224,169,213.3C197.6,203,226,117,254,112C282.4,107,311,181,339,192C367.1,203,395,149,424,149.3C451.8,149,480,203,508,197.3C536.5,192,565,128,593,122.7C621.2,117,649,171,678,197.3C705.9,224,734,224,762,234.7C790.6,245,819,267,847,282.7C875.3,299,904,309,932,304C960,299,988,277,1016,240C1044.7,203,1073,149,1101,122.7C1129.4,96,1158,96,1186,96C1214.1,96,1242,96,1271,128C1298.8,160,1327,224,1355,234.7C1383.5,245,1412,203,1426,181.3L1440,160L1440,0L1425.9,0C1411.8,0,1384,0,1355,0C1327.1,0,1299,0,1271,0C1242.4,0,1214,0,1186,0C1157.6,0,1129,0,1101,0C1072.9,0,1045,0,1016,0C988.2,0,960,0,932,0C903.5,0,875,0,847,0C818.8,0,791,0,762,0C734.1,0,706,0,678,0C649.4,0,621,0,593,0C564.7,0,536,0,508,0C480,0,452,0,424,0C395.3,0,367,0,339,0C310.6,0,282,0,254,0C225.9,0,198,0,169,0C141.2,0,113,0,85,0C56.5,0,28,0,14,0L0,0Z"></path></svg>