<?xml version="1.0" standalone="no"?><svg xmlns="http://www.w3.org/2000/svg" viewBox="0 0 1440 320"><path fill="000" fill-opacity="1" d="M0,64L9.2,74.7C18.5,85,37,107,55,149.3C73.8,192,92,256,111,234.7C129.2,213,148,107,166,58.7C184.6,11,203,21,222,53.3C240,85,258,139,277,170.7C295.4,203,314,213,332,218.7C350.8,224,369,224,388,218.7C406.2,213,425,203,443,181.3C461.5,160,480,128,498,133.3C516.9,139,535,181,554,218.7C572.3,256,591,288,609,277.3C627.7,267,646,213,665,208C683.1,203,702,245,720,245.3C738.5,245,757,203,775,176C793.8,149,812,139,831,112C849.2,85,868,43,886,42.7C904.6,43,923,85,942,85.3C960,85,978,43,997,48C1015.4,53,1034,107,1052,112C1070.8,117,1089,75,1108,48C1126.2,21,1145,11,1163,48C1181.5,85,1200,171,1218,197.3C1236.9,224,1255,192,1274,154.7C1292.3,117,1311,75,1329,69.3C1347.7,64,1366,96,1385,138.7C1403.1,181,1422,235,1431,261.3L1440,288L1440,0L1430.8,0C1421.5,0,1403,0,1385,0C1366.2,0,1348,0,1329,0C1310.8,0,1292,0,1274,0C1255.4,0,1237,0,1218,0C1200,0,1182,0,1163,0C1144.6,0,1126,0,1108,0C1089.2,0,1071,0,1052,0C1033.8,0,1015,0,997,0C978.5,0,960,0,942,0C923.1,0,905,0,886,0C867.7,0,849,0,831,0C812.3,0,794,0,775,0C756.9,0,738,0,720,0C701.5,0,683,0,665,0C646.2,0,628,0,609,0C590.8,0,572,0,554,0C535.4,0,517,0,498,0C480,0,462,0,443,0C424.6,0,406,0,388,0C369.2,0,351,0,332,0C313.8,0,295,0,277,0C258.5,0,240,0,222,0C203.1,0,185,0,166,0C147.7,0,129,0,111,0C92.3,0,74,0,55,0C36.9,0,18,0,9,0L0,0Z"></path></svg>