<?xml version="1.0" standalone="no"?><svg xmlns="http://www.w3.org/2000/svg" viewBox="0 0 1440 320"><path fill="#f3f4f7" fill-opacity="1" d="M0,96L20,117.3C40,139,80,181,120,170.7C160,160,200,96,240,80C280,64,320,96,360,138.7C400,181,440,235,480,266.7C520,299,560,309,600,277.3C640,245,680,171,720,149.3C760,128,800,160,840,192C880,224,920,256,960,256C1000,256,1040,224,1080,218.7C1120,213,1160,235,1200,245.3C1240,256,1280,256,1320,224C1360,192,1400,128,1420,96L1440,64L1440,320L1420,320C1400,320,1360,320,1320,320C1280,320,1240,320,1200,320C1160,320,1120,320,1080,320C1040,320,1000,320,960,320C920,320,880,320,840,320C800,320,760,320,720,320C680,320,640,320,600,320C560,320,520,320,480,320C440,320,400,320,360,320C320,320,280,320,240,320C200,320,160,320,120,320C80,320,40,320,20,320L0,320Z"></path></svg>